<?xml version="1.0" encoding="utf-8"?>
<!-- Generator: Adobe Illustrator 27.0.1, SVG Export Plug-In . SVG Version: 6.00 Build 0)  -->
<svg version="1.1" id="Layer_1" xmlns="http://www.w3.org/2000/svg" xmlns:xlink="http://www.w3.org/1999/xlink" x="0px" y="0px"
	 viewBox="0 0 111.3 22.2" enable-background="new 0 0 111.3 22.2" xml:space="preserve">
<g>
	<path fill="#FFFFFF" d="M0,21.8V0.4h9.1c2.3,0,4,0.2,5,0.6C15.2,1.3,16,2,16.6,3s0.9,2.1,0.9,3.4c0,1.6-0.5,2.9-1.4,4
		c-0.9,1.1-2.4,1.7-4.2,2c0.9,0.5,1.7,1.1,2.3,1.8s1.4,1.8,2.5,3.5l2.6,4.2h-5.2L11,17.2c-1.1-1.7-1.9-2.7-2.3-3.2
		c-0.4-0.4-0.8-0.7-1.3-0.9c-0.5-0.2-1.2-0.2-2.2-0.2H4.3v9C4.3,21.8,0,21.8,0,21.8z M4.3,9.4h3.2c2.1,0,3.4-0.1,3.9-0.3
		s0.9-0.5,1.2-0.9c0.3-0.4,0.4-1,0.4-1.6c0-0.7-0.2-1.3-0.6-1.8s-0.9-0.7-1.6-0.8C10.5,4,9.5,4,7.7,4H4.3V9.4z M20.8,11.2
		c0-2.2,0.3-4,1-5.5c0.5-1.1,1.2-2.1,2-2.9c0.8-0.9,1.8-1.5,2.8-1.9C27.9,0.3,29.4,0,31.2,0c3.2,0,5.7,1,7.6,2.9s2.8,4.7,2.8,8.2
		c0,3.5-0.9,6.2-2.8,8.1s-4.4,2.9-7.6,2.9c-3.2,0-5.7-1-7.6-2.9C21.7,17.3,20.8,14.7,20.8,11.2z M25.2,11.1c0,2.4,0.6,4.3,1.7,5.5
		c1.1,1.3,2.5,1.9,4.3,1.9c1.7,0,3.1-0.6,4.3-1.9c1.1-1.2,1.7-3.1,1.7-5.6c0-2.5-0.5-4.3-1.6-5.5S33,3.7,31.2,3.7S28,4.3,26.9,5.5
		C25.8,6.8,25.2,8.6,25.2,11.1z M42.8,21.8l7.3-11.2L43.5,0.4h5.1l4.3,6.9l4.2-6.9h5l-6.7,10.4l7.3,11h-5.2l-4.8-7.4L48,21.8
		C48,21.8,42.8,21.8,42.8,21.8z M64.9,21.8V0.4h4.3v21.5C69.2,21.8,64.9,21.8,64.9,21.8z M73.4,21.8V0.4h4.2l8.8,14.3V0.4h4v21.5
		h-4.4l-8.7-14v14C77.4,21.8,73.4,21.8,73.4,21.8z M95,21.8V0.4h15.9V4H99.3v4.8h10.8v3.6H99.3v5.8h12v3.6H95z"/>
</g>
</svg>
