<?xml version="1.0" encoding="UTF-8"?>
<svg id="a" data-name="Layer 1" xmlns="http://www.w3.org/2000/svg" viewBox="0 0 500 500">
  <g id="b" data-name="Layer 1">
    <g>
      <path d="M421.3,373.6c-51.8-56.6-101.6-111-152.7-166.9,24.1,2.4,46.4,3.2,68.8,1.8,28-1.8,51.2-11,67.5-35.9,28.6-43.8,6.7-85.5-21.4-106.8-15-11.4-32.2-16.1-51.8-15.7-66.1,1.1-132.3,.6-198.4,.8-3.9,0-7.1-.2-9.5-4.1-6.3-10.4-13-20.6-19.4-30.7,2.2-3,4.9-1.8,7.2-1.8,82.8-.1,165.5-.3,248.3,.1,26.3,.1,46,14.7,63.4,32.6,38.5,39.9,46.2,96.5,18.2,140.3-17.1,26.8-44,41-73.3,51-.9,.3-1.8,.4-2.7,.7-16.1,4.8-16.1,4.7-5.1,17.1,18.8,21.3,37.5,42.8,56.5,64.1,3.6,4,5,8.1,4.9,13.5-.8,12.3-.5,24.7-.5,39.9Z" fill="#fff"/>
      <path d="M454.3,494.5c-110.4-118.1-219.2-234.4-329.6-352.5h45c3.2,0,4.9,2.6,6.8,4.6,91.1,96.4,182.1,192.9,273.2,289.2,3.2,3.4,4.8,6.8,4.7,11.6-.3,14.8-.1,29.5-.1,47.1Z" fill="#fff"/>
      <path d="M284.4,402C189.6,298.8,95.7,196.6,.1,92.5H43.7c2.6,0,4.6,1.5,6.4,3.4,16.3,17.3,32.6,34.5,48.9,51.9,22.8,24.4,45.5,49,68.4,73.4,38.6,41.3,77.2,82.7,116,123.9,4.6,4.9,6.9,10.2,5.6,16.9-2.5,12.6-.8,25.6-4.6,40Z" fill="#fff"/>
    </g>
  </g>
  <g id="c" data-name="Layer 3">
    <g>
      <path d="M475.3,13.5v5.5h-5.5v16.8h-5.7V19h-5.5v-5.5h16.7Z" fill="#fff"/>
      <path d="M500.1,13.5v22.3h-5.7v-12l-5.4,9h-.6l-5.4-8.9v12h-5.7V13.5h5.7l5.7,9.5,5.7-9.5h5.7Z" fill="#fff"/>
    </g>
  </g>
</svg>